<svg viewBox="0 0 262.99 61.251" xmlns="http://www.w3.org/2000/svg"><g id="svgGroup" stroke-linecap="round" fill-rule="evenodd" font-size="9pt" stroke="#000000" stroke-width="0.02mm" fill="#fbf0df" style="stroke:#000000;stroke-width:0.02mm;fill:#fbf0df"><path d="M 10.5 23.381 A 6.759 6.759 0 0 0 13.312 25.113 A 6.945 6.945 0 0 0 15.365 25.411 A 7.464 7.464 0 0 0 17.452 25.133 A 5.736 5.736 0 0 0 19.95 23.661 A 9.056 9.056 0 0 0 22.045 20.107 Q 22.507 18.702 22.667 16.994 A 20.213 20.213 0 0 0 22.75 15.121 A 17.14 17.14 0 0 0 22.339 11.184 Q 21.08 5.868 15.964 4.904 A 13.266 13.266 0 0 0 13.51 4.691 A 13.417 13.417 0 0 0 10.702 5.007 Q 9.394 5.287 7.973 5.816 A 25.461 25.461 0 0 0 6.93 6.231 Q 6.528 10.768 6.456 21.975 A 813.18 813.18 0 0 0 6.44 27.196 A 320.814 320.814 0 0 0 6.482 32.574 Q 6.619 40.69 7.202 44.433 A 13.953 13.953 0 0 0 7.63 46.411 Q 5.322 47.11 3.364 47.111 A 6.895 6.895 0 0 1 3.36 47.111 A 55.568 55.568 0 0 1 3.329 47.111 Q 1.434 47.109 0.263 46.977 A 12.806 12.806 0 0 1 0.21 46.971 A 102.529 102.529 0 0 0 0.639 42.469 Q 1.19 35.106 1.19 24.081 Q 1.19 9.381 0 2.661 A 35.912 35.912 0 0 1 5.974 1.254 Q 9.621 0.701 13.86 0.701 A 26.797 26.797 0 0 1 17.981 0.995 Q 20.099 1.325 21.772 2.027 A 10.204 10.204 0 0 1 25.34 4.446 A 12.309 12.309 0 0 1 28.169 9.606 Q 28.84 11.987 28.84 14.946 A 21.096 21.096 0 0 1 28.343 19.653 A 14.584 14.584 0 0 1 25.305 25.901 Q 21.77 30.101 14.56 30.101 Q 11.76 30.101 9.03 29.051 A 12.804 12.804 0 0 1 9.221 26.797 A 10.798 10.798 0 0 1 9.52 25.551 Q 9.884 24.356 10.247 23.739 A 2.388 2.388 0 0 1 10.5 23.381 Z M 120.75 38.431 L 121.45 37.731 A 15.302 15.302 0 0 0 123.798 40.406 Q 125.742 42.128 128.006 42.666 A 9.155 9.155 0 0 0 130.13 42.911 A 9.401 9.401 0 0 0 131.844 42.763 Q 132.839 42.578 133.641 42.163 A 5.398 5.398 0 0 0 134.155 41.861 A 3.686 3.686 0 0 0 135.16 40.896 Q 135.69 40.129 135.727 39.111 A 4.252 4.252 0 0 0 135.73 38.956 A 3.911 3.911 0 0 0 134.882 36.537 A 5.942 5.942 0 0 0 134.015 35.631 A 14.015 14.015 0 0 0 131.652 34.008 A 17.977 17.977 0 0 0 129.85 33.146 Q 127.4 32.131 124.95 30.976 Q 122.5 29.821 120.785 27.651 A 7.95 7.95 0 0 1 119.091 23.119 A 10.107 10.107 0 0 1 119.07 22.471 A 10.838 10.838 0 0 1 119.464 19.472 A 8.097 8.097 0 0 1 121.87 15.611 Q 124.006 13.689 127.79 13.232 A 21.052 21.052 0 0 1 130.305 13.091 A 20.472 20.472 0 0 1 133.188 13.279 Q 136.629 13.77 138.425 15.541 Q 140.337 17.425 140.778 20.967 A 18.429 18.429 0 0 1 140.91 23.241 A 10.029 10.029 0 0 1 139.512 23.643 A 7.284 7.284 0 0 1 138.04 23.801 Q 136.71 23.801 134.75 23.381 A 20.872 20.872 0 0 0 134.811 22.917 Q 134.89 22.261 134.89 21.841 A 6.147 6.147 0 0 0 134.657 20.111 A 4.882 4.882 0 0 0 133.63 18.236 A 4.085 4.085 0 0 0 131.385 16.941 A 6.229 6.229 0 0 0 130.025 16.801 A 8.361 8.361 0 0 0 128.316 16.966 Q 127.161 17.207 126.266 17.8 A 5.262 5.262 0 0 0 126.14 17.886 A 3.524 3.524 0 0 0 124.665 20.318 A 5.43 5.43 0 0 0 124.6 21.176 A 5.019 5.019 0 0 0 126.157 24.838 A 6.714 6.714 0 0 0 126.315 24.991 A 12.94 12.94 0 0 0 129.143 26.988 A 15.779 15.779 0 0 0 130.48 27.616 Q 132.93 28.631 135.38 29.716 Q 137.83 30.801 139.545 32.796 A 7.051 7.051 0 0 1 141.209 36.748 A 9.31 9.31 0 0 1 141.26 37.731 A 12.156 12.156 0 0 1 140.93 40.656 A 7.823 7.823 0 0 1 138.04 45.151 A 11.787 11.787 0 0 1 132.986 47.337 A 16.299 16.299 0 0 1 129.99 47.601 A 19.742 19.742 0 0 1 122.625 46.252 A 18.456 18.456 0 0 1 118.23 43.751 A 10.117 10.117 0 0 1 119.032 41.271 A 11.737 11.737 0 0 1 119.315 40.706 A 24.592 24.592 0 0 1 119.801 39.837 Q 120.317 38.96 120.75 38.431 Z M 60.2 14.001 L 60.06 17.641 Q 64.89 13.091 70 13.091 A 8.163 8.163 0 0 1 77.808 18.043 Q 79.627 21.721 79.841 28.129 A 52.706 52.706 0 0 1 79.87 29.891 A 28.438 28.438 0 0 1 78.934 37.297 A 24.667 24.667 0 0 1 77.35 41.581 Q 75.95 44.381 73.15 45.991 Q 70.35 47.601 66.92 47.601 A 15.627 15.627 0 0 1 62.636 46.977 A 20.564 20.564 0 0 1 59.78 45.921 Q 60.06 56.211 60.97 60.551 A 7.154 7.154 0 0 1 59.475 61.029 Q 58.749 61.181 57.908 61.229 A 13.96 13.96 0 0 1 57.12 61.251 A 63.909 63.909 0 0 1 56.031 61.242 Q 54.855 61.222 54.025 61.155 A 15.481 15.481 0 0 1 53.55 61.111 Q 54.6 54.741 54.6 34.161 A 178.062 178.062 0 0 0 54.423 25.967 Q 54.128 19.574 53.34 14.631 A 14.608 14.608 0 0 1 55.998 14.029 A 12.323 12.323 0 0 1 57.54 13.931 Q 59.198 13.931 59.922 13.977 A 6.156 6.156 0 0 1 60.2 14.001 Z M 191.45 38.781 L 191.73 38.781 A 39.705 39.705 0 0 0 193.163 35.703 Q 194.679 32.085 196.147 27.01 A 125.802 125.802 0 0 0 196.245 26.671 A 94.006 94.006 0 0 0 197.435 22.111 Q 198.538 17.374 198.73 13.861 Q 199.75 13.747 200.357 13.726 A 7.44 7.44 0 0 1 200.62 13.721 Q 203.3 13.721 205.236 14.51 A 8.154 8.154 0 0 1 206.08 14.911 A 204.076 204.076 0 0 0 204.717 18.015 Q 202.519 23.127 199.395 30.976 A 314.936 314.936 0 0 0 197.49 35.873 Q 195.624 40.8 194.584 44.166 A 55.676 55.676 0 0 0 193.9 46.551 A 16.071 16.071 0 0 1 192.433 46.877 Q 191.714 47 191.068 47.03 A 8.912 8.912 0 0 1 190.645 47.041 Q 189.21 47.041 188.72 46.971 A 130.88 130.88 0 0 0 187.181 41.949 Q 186.393 39.535 185.421 36.809 A 296.048 296.048 0 0 0 183.295 31.046 A 246.799 246.799 0 0 0 180.636 24.33 Q 178.456 19.067 176.4 14.911 A 17.327 17.327 0 0 1 178.507 14.162 Q 179.638 13.847 180.669 13.756 A 9.263 9.263 0 0 1 181.475 13.721 Q 183.75 13.721 184.52 13.791 A 51.126 51.126 0 0 0 185.655 21.26 Q 187.348 28.89 191.386 38.627 A 163.502 163.502 0 0 0 191.45 38.781 Z M 161.547 31.004 A 34.337 34.337 0 0 0 171.36 29.331 A 6.227 6.227 0 0 0 171.637 28.504 Q 172.097 26.773 172.097 23.703 A 42.57 42.57 0 0 0 172.095 23.346 A 10.051 10.051 0 0 0 171.401 19.687 A 10.488 10.488 0 0 0 169.015 16.136 A 9.986 9.986 0 0 0 164.496 13.537 A 13.528 13.528 0 0 0 160.93 13.091 Q 158.339 13.091 156.268 13.678 A 10.115 10.115 0 0 0 150.535 17.641 A 14.97 14.97 0 0 0 148.938 20.606 Q 147.35 24.516 147.35 30.101 A 38.483 38.483 0 0 0 147.478 33.299 Q 147.691 35.849 148.258 38.014 A 18.328 18.328 0 0 0 150.22 42.806 A 8.967 8.967 0 0 0 152.712 45.528 Q 155.608 47.601 160.44 47.601 A 19.377 19.377 0 0 0 166.293 46.697 A 22.867 22.867 0 0 0 172.27 43.751 Q 171.71 40.321 169.68 38.221 Q 166.895 40.797 164.357 41.844 A 8.784 8.784 0 0 1 161 42.561 Q 157.01 42.561 155.12 39.831 Q 153.09 36.961 153.09 30.661 Q 155.68 31.011 160.895 31.011 A 32.403 32.403 0 0 0 161.547 31.004 Z M 224.827 31.004 A 34.337 34.337 0 0 0 234.64 29.331 A 6.227 6.227 0 0 0 234.917 28.504 Q 235.377 26.773 235.377 23.703 A 42.57 42.57 0 0 0 235.375 23.346 A 10.051 10.051 0 0 0 234.681 19.687 A 10.488 10.488 0 0 0 232.295 16.136 A 9.986 9.986 0 0 0 227.776 13.537 A 13.528 13.528 0 0 0 224.21 13.091 Q 221.619 13.091 219.548 13.678 A 10.115 10.115 0 0 0 213.815 17.641 A 14.97 14.97 0 0 0 212.218 20.606 Q 210.63 24.516 210.63 30.101 A 38.483 38.483 0 0 0 210.758 33.299 Q 210.971 35.849 211.538 38.014 A 18.328 18.328 0 0 0 213.5 42.806 A 8.967 8.967 0 0 0 215.992 45.528 Q 218.888 47.601 223.72 47.601 A 19.377 19.377 0 0 0 229.573 46.697 A 22.867 22.867 0 0 0 235.55 43.751 Q 234.99 40.321 232.96 38.221 Q 230.175 40.797 227.637 41.844 A 8.784 8.784 0 0 1 224.28 42.561 Q 220.29 42.561 218.4 39.831 Q 216.37 36.961 216.37 30.661 Q 218.96 31.011 224.175 31.011 A 32.403 32.403 0 0 0 224.827 31.004 Z M 250.18 14.071 L 250.18 17.711 Q 251.79 15.891 253.96 14.666 A 10.112 10.112 0 0 1 255.962 13.791 A 7.702 7.702 0 0 1 258.23 13.441 A 3.454 3.454 0 0 1 260.802 14.583 Q 261.251 15.05 261.635 15.708 A 7.738 7.738 0 0 1 261.66 15.751 A 9.633 9.633 0 0 1 262.735 18.659 Q 262.99 19.911 262.99 21.351 A 17.067 17.067 0 0 1 262.97 22.194 Q 262.95 22.607 262.908 22.968 A 8.45 8.45 0 0 1 262.85 23.381 A 5.934 5.934 0 0 1 261.191 23.934 A 5.316 5.316 0 0 1 260.295 24.011 Q 259.305 24.011 258.008 23.847 A 30.859 30.859 0 0 1 257.18 23.731 A 46.269 46.269 0 0 0 257.235 23.277 Q 257.304 22.67 257.317 22.376 A 2.703 2.703 0 0 0 257.32 22.261 A 7.798 7.798 0 0 0 257.209 20.879 Q 256.762 18.411 254.52 18.411 Q 253.898 18.411 252.912 19.049 A 9.923 9.923 0 0 0 252.42 19.391 A 12.787 12.787 0 0 0 250.812 20.807 A 15.748 15.748 0 0 0 249.9 21.841 A 50.787 50.787 0 0 0 249.839 23.105 Q 249.76 25.206 249.76 28.59 A 286.869 286.869 0 0 0 249.76 28.631 Q 249.76 40.111 251.02 46.131 A 24.2 24.2 0 0 1 249.378 46.529 Q 247.898 46.831 246.75 46.831 A 37.607 37.607 0 0 1 245.112 46.797 Q 244.336 46.763 243.645 46.695 A 22.882 22.882 0 0 1 243.6 46.691 A 201.831 201.831 0 0 0 244.24 39.885 Q 244.496 36.515 244.592 33.508 A 108.947 108.947 0 0 0 244.65 30.031 Q 244.65 22.891 243.25 14.491 A 34.511 34.511 0 0 1 244.808 14.137 Q 246.283 13.84 247.325 13.798 A 8.264 8.264 0 0 1 247.66 13.791 Q 249.27 13.791 250.18 14.071 Z M 87.063 23.803 A 31.722 31.722 0 0 0 86.52 29.961 A 41.673 41.673 0 0 0 86.694 33.875 Q 87.173 38.944 88.97 42.281 A 9.056 9.056 0 0 0 91.825 45.548 Q 93.509 46.723 95.838 47.225 A 18.249 18.249 0 0 0 99.68 47.601 Q 107.59 47.601 110.39 42.281 Q 112.84 37.731 112.84 29.961 Q 112.84 17.44 105.591 14.212 A 14.428 14.428 0 0 0 99.68 13.091 A 18.414 18.414 0 0 0 97.809 13.182 Q 88.996 14.083 87.063 23.803 Z M 42.35 28.631 Q 42.35 40.111 43.61 46.131 A 21.31 21.31 0 0 1 41.499 46.609 Q 40.202 46.831 39.06 46.831 A 46.787 46.787 0 0 1 38.119 46.822 Q 36.834 46.796 36.204 46.693 A 4.455 4.455 0 0 1 36.19 46.691 Q 37.24 37.171 37.24 29.226 A 88.111 88.111 0 0 0 36.796 20.198 A 71.401 71.401 0 0 0 35.98 14.491 Q 38.016 13.892 39.693 13.805 A 10.803 10.803 0 0 1 40.25 13.791 A 21.121 21.121 0 0 1 41.553 13.828 Q 42.603 13.893 43.4 14.071 A 530.119 530.119 0 0 0 42.991 18.476 Q 42.35 25.732 42.35 28.631 Z M 66.29 42.561 A 6.285 6.285 0 0 0 72.299 38.614 Q 73.678 35.744 73.884 30.787 A 43.534 43.534 0 0 0 73.92 28.981 A 38.876 38.876 0 0 0 73.789 25.658 Q 73.339 20.437 71.338 18.675 A 3.84 3.84 0 0 0 71.19 18.551 Q 69.997 17.622 68.112 17.573 A 8.162 8.162 0 0 0 67.9 17.571 Q 66.004 17.571 63.925 18.731 A 12.677 12.677 0 0 0 63.63 18.901 Q 61.39 20.231 59.85 22.121 A 330.336 330.336 0 0 0 59.789 25.476 Q 59.714 30.901 59.71 39.988 A 2344.194 2344.194 0 0 0 59.71 40.951 A 33.185 33.185 0 0 0 61.985 41.765 Q 64.251 42.477 65.908 42.552 A 8.444 8.444 0 0 0 66.29 42.561 Z M 92.26 29.786 Q 92.26 42.561 99.68 42.561 Q 106.632 42.561 107.071 31.345 A 39.976 39.976 0 0 0 107.1 29.786 Q 107.1 17.011 99.68 17.011 Q 92.728 17.011 92.289 28.226 A 39.976 39.976 0 0 0 92.26 29.786 Z M 153.704 23.211 A 21.762 21.762 0 0 0 153.16 26.601 Q 155.976 26.928 159.497 26.949 A 81.481 81.481 0 0 0 159.985 26.951 Q 163.569 26.951 165.702 26.333 A 9.367 9.367 0 0 0 165.97 26.251 Q 166.223 23.972 166.247 23.696 A 0.608 0.608 0 0 0 166.25 23.661 A 8.901 8.901 0 0 0 165.932 21.233 A 7.252 7.252 0 0 0 164.85 18.971 Q 163.452 17.013 160.447 17.011 A 9.634 9.634 0 0 0 160.44 17.011 Q 155.262 17.011 153.704 23.211 Z M 216.984 23.211 A 21.762 21.762 0 0 0 216.44 26.601 Q 219.256 26.928 222.777 26.949 A 81.481 81.481 0 0 0 223.265 26.951 Q 226.849 26.951 228.982 26.333 A 9.367 9.367 0 0 0 229.25 26.251 Q 229.503 23.972 229.527 23.696 A 0.608 0.608 0 0 0 229.53 23.661 A 8.901 8.901 0 0 0 229.212 21.233 A 7.252 7.252 0 0 0 228.13 18.971 Q 226.732 17.013 223.727 17.011 A 9.634 9.634 0 0 0 223.72 17.011 Q 218.542 17.011 216.984 23.211 Z M 43.45 5.384 A 6.031 6.031 0 0 0 43.68 3.641 A 5.6 5.6 0 0 0 43.537 2.316 Q 43.132 0.658 41.586 0.187 A 4.83 4.83 0 0 0 40.18 0.001 Q 36.706 0.001 35.926 2.652 A 6.238 6.238 0 0 0 35.7 4.411 Q 35.7 7.179 37.804 7.8 A 4.932 4.932 0 0 0 39.2 7.981 A 6.843 6.843 0 0 0 40.83 7.803 Q 42.87 7.301 43.45 5.384 Z" vector-effect="non-scaling-stroke"/></g></svg>