<svg viewBox="0 0 375.4 87.501" xmlns="http://www.w3.org/2000/svg"><g id="svgGroup" stroke-linecap="round" fill-rule="evenodd" font-size="9pt" stroke="#000000" stroke-width="0" fill="#fbf0df" style="stroke:#000000;stroke-width:0;fill:#fbf0df"><path d="M 172.2 54.901 L 173.2 53.901 Q 178.4 61.301 185.6 61.301 A 13.429 13.429 0 0 0 188.049 61.09 Q 189.47 60.826 190.616 60.233 A 7.711 7.711 0 0 0 191.35 59.801 Q 193.6 58.301 193.6 55.651 A 5.587 5.587 0 0 0 192.389 52.196 A 8.489 8.489 0 0 0 191.15 50.901 A 20.021 20.021 0 0 0 187.774 48.583 A 25.682 25.682 0 0 0 185.2 47.351 Q 181.7 45.901 178.2 44.251 Q 174.7 42.601 172.25 39.501 A 11.357 11.357 0 0 1 169.829 33.027 A 14.438 14.438 0 0 1 169.8 32.101 Q 169.8 25.901 173.8 22.301 A 12.475 12.475 0 0 1 178.075 19.84 Q 179.952 19.181 182.257 18.904 A 30.074 30.074 0 0 1 185.85 18.701 Q 193.9 18.701 197.45 22.201 Q 201 25.701 201 33.201 A 14.327 14.327 0 0 1 199.003 33.775 A 10.406 10.406 0 0 1 196.9 34.001 Q 195 34.001 192.2 33.401 Q 192.4 32.001 192.4 31.201 A 8.781 8.781 0 0 0 192.068 28.731 A 6.974 6.974 0 0 0 190.6 26.051 A 5.836 5.836 0 0 0 187.392 24.201 A 8.898 8.898 0 0 0 185.45 24.001 A 11.945 11.945 0 0 0 183.008 24.237 Q 181.358 24.582 180.08 25.428 A 7.518 7.518 0 0 0 179.9 25.551 A 5.035 5.035 0 0 0 177.793 29.026 A 7.757 7.757 0 0 0 177.7 30.251 A 7.171 7.171 0 0 0 179.925 35.482 A 9.591 9.591 0 0 0 180.15 35.701 A 18.486 18.486 0 0 0 184.189 38.555 A 22.542 22.542 0 0 0 186.1 39.451 Q 189.6 40.901 193.1 42.451 Q 196.6 44.001 199.05 46.851 A 10.072 10.072 0 0 1 201.428 52.497 A 13.299 13.299 0 0 1 201.5 53.901 A 17.366 17.366 0 0 1 201.028 58.08 A 11.176 11.176 0 0 1 196.9 64.501 A 16.838 16.838 0 0 1 189.68 67.624 A 23.285 23.285 0 0 1 185.4 68.001 A 28.203 28.203 0 0 1 174.878 66.075 A 26.365 26.365 0 0 1 168.6 62.501 A 14.453 14.453 0 0 1 169.745 58.959 A 16.767 16.767 0 0 1 170.15 58.151 A 35.132 35.132 0 0 1 170.844 56.91 Q 171.581 55.657 172.2 54.901 Z M 9.8 20.001 L 9.6 25.201 Q 16.5 18.701 23.8 18.701 A 11.662 11.662 0 0 1 34.955 25.776 Q 37.9 31.732 37.9 42.701 A 40.626 40.626 0 0 1 36.563 53.282 A 35.239 35.239 0 0 1 34.3 59.401 Q 32.3 63.401 28.3 65.701 A 17.432 17.432 0 0 1 19.857 67.996 A 20.615 20.615 0 0 1 19.4 68.001 A 22.324 22.324 0 0 1 13.28 67.11 A 29.378 29.378 0 0 1 9.2 65.601 A 305.228 305.228 0 0 0 9.456 72.42 Q 9.764 78.609 10.29 82.739 A 48.327 48.327 0 0 0 10.9 86.501 Q 9.087 87.325 6.526 87.47 A 19.944 19.944 0 0 1 5.4 87.501 Q 2.68 87.501 0.979 87.365 A 22.117 22.117 0 0 1 0.3 87.301 A 66.576 66.576 0 0 0 0.884 82.348 Q 1.585 74.249 1.75 58.887 A 946.404 946.404 0 0 0 1.8 48.801 Q 1.8 32.201 0 20.901 Q 3.1 19.901 6 19.901 A 132.718 132.718 0 0 1 7.173 19.906 Q 9.097 19.923 9.8 20.001 Z M 85.7 20.001 L 85.5 25.201 Q 92.4 18.701 99.7 18.701 A 11.662 11.662 0 0 1 110.855 25.776 Q 113.8 31.732 113.8 42.701 A 40.626 40.626 0 0 1 112.463 53.282 A 35.239 35.239 0 0 1 110.2 59.401 Q 108.2 63.401 104.2 65.701 A 17.432 17.432 0 0 1 95.757 67.996 A 20.615 20.615 0 0 1 95.3 68.001 A 22.324 22.324 0 0 1 89.18 67.11 A 29.378 29.378 0 0 1 85.1 65.601 A 305.228 305.228 0 0 0 85.356 72.42 Q 85.664 78.609 86.19 82.739 A 48.327 48.327 0 0 0 86.8 86.501 Q 84.987 87.325 82.426 87.47 A 19.944 19.944 0 0 1 81.3 87.501 Q 78.58 87.501 76.879 87.365 A 22.117 22.117 0 0 1 76.2 87.301 A 66.576 66.576 0 0 0 76.784 82.348 Q 77.485 74.249 77.65 58.887 A 946.404 946.404 0 0 0 77.7 48.801 Q 77.7 32.201 75.9 20.901 Q 79 19.901 81.9 19.901 A 132.718 132.718 0 0 1 83.073 19.906 Q 84.997 19.923 85.7 20.001 Z M 273.2 55.401 L 273.6 55.401 Q 276.827 49.24 279.91 38.586 A 179.721 179.721 0 0 0 280.05 38.101 A 134.295 134.295 0 0 0 281.75 31.587 Q 282.538 28.203 283 25.257 A 54.668 54.668 0 0 0 283.6 19.801 Q 285.057 19.639 285.925 19.608 A 10.628 10.628 0 0 1 286.3 19.601 A 21.502 21.502 0 0 1 289.6 19.84 Q 291.402 20.12 292.895 20.728 A 11.648 11.648 0 0 1 294.1 21.301 Q 290.5 29.301 284.55 44.251 Q 279.851 56.058 277.678 63.094 A 79.537 79.537 0 0 0 276.7 66.501 Q 274.476 67.1 272.654 67.186 A 12.731 12.731 0 0 1 272.05 67.201 A 67.068 67.068 0 0 1 271.218 67.196 Q 270.088 67.182 269.518 67.126 A 4.945 4.945 0 0 1 269.3 67.101 A 186.972 186.972 0 0 0 267.102 59.927 Q 265.976 56.479 264.588 52.585 A 422.924 422.924 0 0 0 261.55 44.351 A 352.57 352.57 0 0 0 257.751 34.758 Q 255.805 30.058 253.928 25.976 A 182.708 182.708 0 0 0 251.7 21.301 Q 255.005 19.896 257.798 19.652 A 13.233 13.233 0 0 1 258.95 19.601 A 168.379 168.379 0 0 1 260.269 19.606 Q 262.059 19.62 262.957 19.675 A 12.01 12.01 0 0 1 263.3 19.701 A 73.037 73.037 0 0 0 264.921 30.371 Q 267.34 41.271 273.109 55.182 A 234.677 234.677 0 0 0 273.2 55.401 Z M 244.5 41.901 Q 237 44.301 229.55 44.301 Q 223.519 44.301 219.945 43.973 A 36.462 36.462 0 0 1 218.4 43.801 Q 218.4 52.801 221.3 56.901 A 8.737 8.737 0 0 0 227.037 60.557 A 13.775 13.775 0 0 0 229.7 60.801 Q 235.4 60.801 242.1 54.601 A 13.118 13.118 0 0 1 245.026 59.423 A 17.875 17.875 0 0 1 245.8 62.501 A 32.668 32.668 0 0 1 237.261 66.71 A 27.681 27.681 0 0 1 228.9 68.001 A 25.005 25.005 0 0 1 223.5 67.459 Q 220.227 66.734 217.86 65.04 A 12.81 12.81 0 0 1 214.3 61.151 Q 211.065 55.746 210.382 47.57 A 54.976 54.976 0 0 1 210.2 43.001 A 45.545 45.545 0 0 1 210.69 36.102 Q 211.693 29.568 214.75 25.201 A 14.45 14.45 0 0 1 222.939 19.54 Q 225.898 18.701 229.6 18.701 A 19.326 19.326 0 0 1 234.695 19.338 A 14.266 14.266 0 0 1 241.15 23.051 Q 245.5 27.401 245.55 33.351 A 60.823 60.823 0 0 1 245.552 33.862 Q 245.552 38.247 244.896 40.72 A 8.896 8.896 0 0 1 244.5 41.901 Z M 334.9 41.901 Q 327.4 44.301 319.95 44.301 Q 313.919 44.301 310.345 43.973 A 36.462 36.462 0 0 1 308.8 43.801 Q 308.8 52.801 311.7 56.901 A 8.737 8.737 0 0 0 317.437 60.557 A 13.775 13.775 0 0 0 320.1 60.801 Q 325.8 60.801 332.5 54.601 A 13.118 13.118 0 0 1 335.426 59.423 A 17.875 17.875 0 0 1 336.2 62.501 A 32.668 32.668 0 0 1 327.661 66.71 A 27.681 27.681 0 0 1 319.3 68.001 A 25.005 25.005 0 0 1 313.9 67.459 Q 310.627 66.734 308.26 65.04 A 12.81 12.81 0 0 1 304.7 61.151 Q 301.465 55.746 300.782 47.57 A 54.976 54.976 0 0 1 300.6 43.001 A 45.545 45.545 0 0 1 301.09 36.102 Q 302.093 29.568 305.15 25.201 A 14.45 14.45 0 0 1 313.339 19.54 Q 316.298 18.701 320 18.701 A 19.326 19.326 0 0 1 325.095 19.338 A 14.266 14.266 0 0 1 331.55 23.051 Q 335.9 27.401 335.95 33.351 A 60.823 60.823 0 0 1 335.952 33.862 Q 335.952 38.247 335.296 40.72 A 8.896 8.896 0 0 1 334.9 41.901 Z M 357.1 20.101 L 357.1 25.301 Q 359.4 22.701 362.5 20.951 Q 365.6 19.201 368.6 19.201 A 4.934 4.934 0 0 1 372.275 20.832 Q 372.936 21.521 373.5 22.501 A 13.761 13.761 0 0 1 375.036 26.656 Q 375.389 28.389 375.4 30.373 A 23.108 23.108 0 0 1 375.4 30.501 Q 375.4 32.201 375.2 33.401 A 8.477 8.477 0 0 1 372.83 34.192 A 7.594 7.594 0 0 1 371.55 34.301 A 21.343 21.343 0 0 1 370.057 34.245 Q 368.725 34.151 367.1 33.901 Q 367.271 32.53 367.296 31.966 A 3.861 3.861 0 0 0 367.3 31.801 A 11.14 11.14 0 0 0 367.141 29.828 Q 366.503 26.301 363.3 26.301 A 2.453 2.453 0 0 0 362.582 26.423 Q 361.897 26.634 361.003 27.213 A 14.176 14.176 0 0 0 360.3 27.701 A 18.267 18.267 0 0 0 358.003 29.724 A 22.497 22.497 0 0 0 356.7 31.201 Q 356.501 34.387 356.5 40.844 A 409.776 409.776 0 0 0 356.5 40.901 A 242.612 242.612 0 0 0 356.642 49.509 Q 356.939 57.825 357.852 63.468 A 54.002 54.002 0 0 0 358.3 65.901 A 34.571 34.571 0 0 1 355.955 66.47 Q 354.782 66.709 353.755 66.815 A 15.132 15.132 0 0 1 352.2 66.901 A 53.724 53.724 0 0 1 349.86 66.852 Q 348.751 66.804 347.764 66.707 A 32.643 32.643 0 0 1 347.7 66.701 A 288.33 288.33 0 0 0 348.614 56.979 Q 348.98 52.164 349.118 47.869 A 155.638 155.638 0 0 0 349.2 42.901 A 120.686 120.686 0 0 0 348.576 30.944 A 157.284 157.284 0 0 0 347.2 20.701 A 49.302 49.302 0 0 1 349.425 20.195 Q 351.532 19.771 353.022 19.711 A 11.805 11.805 0 0 1 353.5 19.701 A 21.422 21.422 0 0 1 354.84 19.74 Q 356.086 19.818 356.939 20.054 A 5.783 5.783 0 0 1 357.1 20.101 Z M 124.076 34.005 A 45.318 45.318 0 0 0 123.3 42.801 Q 123.3 49.565 124.6 54.621 A 25.597 25.597 0 0 0 126.8 60.401 A 12.937 12.937 0 0 0 130.878 65.068 Q 133.284 66.747 136.612 67.465 A 26.071 26.071 0 0 0 142.1 68.001 Q 153.4 68.001 157.4 60.401 A 24.517 24.517 0 0 0 159.264 55.829 Q 160.9 50.39 160.9 42.801 A 52.085 52.085 0 0 0 160.662 37.678 Q 159.329 24.214 150.544 20.303 A 20.611 20.611 0 0 0 142.1 18.701 A 26.306 26.306 0 0 0 139.428 18.832 Q 126.837 20.118 124.076 34.005 Z M 60.2 40.901 A 242.612 242.612 0 0 0 60.342 49.509 Q 60.639 57.825 61.552 63.468 A 54.002 54.002 0 0 0 62 65.901 A 30.443 30.443 0 0 1 58.984 66.584 Q 57.479 66.841 56.12 66.89 A 17.48 17.48 0 0 1 55.5 66.901 Q 52.6 66.901 51.4 66.701 Q 52.9 53.101 52.9 41.751 A 125.873 125.873 0 0 0 52.265 28.854 A 102.001 102.001 0 0 0 51.1 20.701 A 27.761 27.761 0 0 1 53.844 20.035 Q 55.19 19.784 56.405 19.722 A 15.432 15.432 0 0 1 57.2 19.701 A 30.173 30.173 0 0 1 59.061 19.755 Q 60.561 19.848 61.7 20.101 A 757.312 757.312 0 0 0 61.116 26.394 Q 60.361 34.938 60.228 39.253 A 54.191 54.191 0 0 0 60.2 40.901 Z M 29.348 43.981 A 62.191 62.191 0 0 0 29.4 41.401 A 55.537 55.537 0 0 0 29.213 36.655 Q 28.547 28.923 25.5 26.501 Q 23.795 25.175 21.103 25.105 A 11.66 11.66 0 0 0 20.8 25.101 Q 17.9 25.101 14.7 27.001 A 20.527 20.527 0 0 0 10.16 30.616 A 19.002 19.002 0 0 0 9.3 31.601 Q 9.107 39.591 9.1 57.126 A 3356.338 3356.338 0 0 0 9.1 58.501 Q 14.9 60.801 18.5 60.801 Q 28.649 60.801 29.348 43.981 Z M 105.248 43.981 A 62.191 62.191 0 0 0 105.3 41.401 A 55.537 55.537 0 0 0 105.113 36.655 Q 104.447 28.923 101.4 26.501 Q 99.695 25.175 97.003 25.105 A 11.66 11.66 0 0 0 96.7 25.101 Q 93.8 25.101 90.6 27.001 A 20.527 20.527 0 0 0 86.06 30.616 A 19.002 19.002 0 0 0 85.2 31.601 Q 85.007 39.591 85 57.126 A 3356.338 3356.338 0 0 0 85 58.501 Q 90.8 60.801 94.4 60.801 Q 104.549 60.801 105.248 43.981 Z M 131.5 42.551 A 46.962 46.962 0 0 0 131.873 48.753 Q 133.487 60.801 142.1 60.801 Q 152.032 60.801 152.658 44.779 A 57.108 57.108 0 0 0 152.7 42.551 A 46.962 46.962 0 0 0 152.327 36.349 Q 150.712 24.301 142.1 24.301 Q 132.168 24.301 131.542 40.323 A 57.108 57.108 0 0 0 131.5 42.551 Z M 228.9 24.301 A 8.629 8.629 0 0 0 220.901 28.942 Q 219.892 30.712 219.277 33.158 A 31.089 31.089 0 0 0 218.5 38.001 A 71.125 71.125 0 0 0 222.935 38.368 Q 225.127 38.484 227.552 38.499 A 116.398 116.398 0 0 0 228.25 38.501 Q 233.7 38.501 236.8 37.501 Q 237.162 34.245 237.196 33.852 A 0.869 0.869 0 0 0 237.2 33.801 A 12.715 12.715 0 0 0 236.746 30.333 A 10.36 10.36 0 0 0 235.2 27.101 A 6.407 6.407 0 0 0 231.363 24.574 Q 230.248 24.302 228.91 24.301 A 12.511 12.511 0 0 0 228.9 24.301 Z M 319.3 24.301 A 8.629 8.629 0 0 0 311.301 28.942 Q 310.292 30.712 309.677 33.158 A 31.089 31.089 0 0 0 308.9 38.001 A 71.125 71.125 0 0 0 313.335 38.368 Q 315.527 38.484 317.952 38.499 A 116.398 116.398 0 0 0 318.65 38.501 Q 324.1 38.501 327.2 37.501 Q 327.562 34.245 327.596 33.852 A 0.869 0.869 0 0 0 327.6 33.801 A 12.715 12.715 0 0 0 327.146 30.333 A 10.36 10.36 0 0 0 325.6 27.101 A 6.407 6.407 0 0 0 321.763 24.574 Q 320.648 24.302 319.31 24.301 A 12.511 12.511 0 0 0 319.3 24.301 Z M 61.771 7.692 A 8.615 8.615 0 0 0 62.1 5.201 A 8 8 0 0 0 61.895 3.309 Q 61.317 0.94 59.109 0.268 A 6.9 6.9 0 0 0 57.1 0.001 A 9.579 9.579 0 0 0 54.735 0.268 Q 50.7 1.298 50.7 6.301 Q 50.7 11.401 55.7 11.401 Q 60.65 11.401 61.771 7.692 Z" vector-effect="non-scaling-stroke"/></g></svg>