<?xml version="1.0" standalone="no"?>
<!DOCTYPE svg PUBLIC "-//W3C//DTD SVG 1.0//EN" "http://www.w3.org/TR/2001/REC-SVG-20010904/DTD/svg10.dtd">
<svg xmlns="http://www.w3.org/2000/svg" xmlns:xlink="http://www.w3.org/1999/xlink" id="body_1" width="512" height="460" fill="#fbf0df">

<g transform="matrix(0.40000004 0 0 0.40000004 0 0)">
	<g transform="matrix(0.1 0 -0 -0.1 0 1150)">
        <path d="M9733 9780C 9679 9769 9657 9757 9604 9708C 9554 9662 9518 9650 9429 9650C 9336 9650 9094 9624 8905 9594C 8417 9515 7992 9356 7635 9118C 7467 9007 7338 8897 7170 8724C 6908 8453 6804 8301 6375 7565C 6086 7069 6098 7082 5923 7055C 5869 7046 5815 7032 5802 7024C 5789 7015 5770 6988 5758 6962C 5675 6771 5390 5789 5390 5692C 5390 5666 5400 5654 5449 5616C 5533 5551 5680 5464 5795 5410C 5906 5358 6181 5250 6202 5250C 6225 5250 6276 5310 6496 5595C 6811 6003 6937 6202 7014 6418C 7044 6503 7045 6521 7025 6615C 6962 6912 7090 7444 7330 7884C 7471 8142 7621 8345 7823 8548C 8261 8991 8757 9228 9406 9306C 9522 9320 9561 9321 9645 9311C 9802 9293 9919 9296 9992 9321C 10127 9366 10440 9539 10513 9608C 10591 9682 10496 9762 10307 9781C 10193 9792 9790 9791 9733 9780z" stroke="none" fill="#000000" fill-rule="nonzero" />
        <path d="M2430 5744C 2210 5710 1925 5628 1831 5570C 1723 5503 1760 5466 1990 5411C 2251 5348 2503 5325 2835 5333C 3175 5341 3395 5375 3638 5456C 3812 5514 3880 5549 3880 5581C 3880 5610 3659 5680 3473 5711C 3172 5760 2646 5776 2430 5744zM3155 5659C 3396 5636 3542 5591 3548 5536C 3550 5521 3546 5502 3540 5495C 3478 5420 2970 5366 2549 5389C 2149 5410 1947 5469 1990 5550C 2022 5609 2246 5658 2565 5674C 2675 5680 3034 5671 3155 5659z" stroke="none" fill="#000000" fill-rule="nonzero" />
        <path d="M2425 5629C 2297 5618 2115 5583 2070 5562C 2015 5535 2020 5515 2086 5490C 2283 5417 2812 5390 3192 5435C 3387 5458 3528 5500 3517 5533C 3506 5567 3329 5610 3115 5630C 2986 5642 2569 5641 2425 5629z" stroke="none" fill="#000000" fill-rule="nonzero" />
        <path d="M5169 5657C 5110 5635 5067 5604 5008 5542C 4924 5455 4851 5334 4735 5097C 4589 4798 4572 4739 4620 4695C 4667 4653 5851 4095 5969 4059C 6010 4047 6012 4047 6040 4076C 6099 4136 6362 4643 6402 4773C 6443 4908 6415 5034 6323 5126C 6267 5181 6248 5191 6030 5275C 5745 5385 5584 5467 5429 5581C 5324 5659 5240 5683 5169 5657z" stroke="none" fill="#000000" fill-rule="nonzero" />
        <path d="M3836 5499C 3584 5368 3203 5300 2724 5300C 2369 5300 2094 5333 1850 5406C 1781 5426 1706 5445 1682 5448C 1610 5455 1600 5437 1534 5205C 1324 4453 1264 3638 1385 3159C 1515 2640 1805 2247 2212 2035C 2459 1907 2650 1867 3025 1867C 3304 1867 3545 1906 3823 1996C 4605 2251 5273 2776 5671 3450C 5722 3535 5816 3695 5881 3804C 5947 3914 5999 4004 5998 4005C 5996 4006 5912 4046 5810 4093C 5708 4140 5409 4282 5145 4410C 4881 4537 4648 4649 4627 4657L4627 4657L4588 4673L4526 4611C 4492 4578 4458 4550 4451 4550C 4443 4550 4416 4563 4391 4578C 4366 4594 4318 4617 4286 4630C 4207 4662 4165 4700 4146 4758C 4137 4784 4097 4931 4055 5084C 3965 5418 3930 5524 3910 5527C 3902 5528 3869 5516 3836 5499z" stroke="none" fill="#000000" fill-rule="nonzero" />
	</g>
</g>
</svg>